# xmcd
#
# Track frame offsets:
#	150
#	16820
#	31584
#	46106
#	59440
#	77015
#	93416
#	104409
#	117058
#	133188
#	147731
#	161948
#	175247
#	189013
#	204635
#	217036
#	234359
#	249572
#	266323
#	281683
#	299951
#	313611
#
# Disc length: 4381 seconds
#
# Revision: 1
# Processed by: cddbd v1.5.2PL0 Copyright (c) Steve Scherf et al.
# Submitted via: audiograbber 1.83.01
#
DISCID=43111b16
DTITLE=Larz Kristerz - Våra bästa 2009-2015
DYEAR=2015
DGENRE=Easy Listening
TTITLE0=Det Måste Gå Att Dansa Till
TTITLE1=Carina
TTITLE2=Hjärtat V
TTITLE3=Half A Boy Half A Man
TTITLE4=Torkade Rosor Och Tummade Brev
TTITLE5=Bara Vara
TTITLE6=Små Ord Av Guld
TTITLE7=Purple Rain
TTITLE8=Zetor'n
TTITLE9=När Radion Spelade Rock 'N' Roll
TTITLE10=Vaya Con Dios
TTITLE11=Midsommarnatt
TTITLE12=Är Du Lika Ensam Som Jag
TTITLE13=Dance With Somebody
TTITLE14=Rose.marie
TTITLE15=Fast I Eget Garn Igen
TTITLE16=Här På Landet
TTITLE17=Regniga Natt
TTITLE18=Lycka Till
TTITLE19=Gasen I Botten
TTITLE20=I Love Europe
TTITLE21=Vykort Från Himlen
EXTD=
EXTT0=
EXTT1=
EXTT2=
EXTT3=
EXTT4=
EXTT5=
EXTT6=
EXTT7=
EXTT8=
EXTT9=
EXTT10=
EXTT11=
EXTT12=
EXTT13=
EXTT14=
EXTT15=
EXTT16=
EXTT17=
EXTT18=
EXTT19=
EXTT20=
EXTT21=
PLAYORDER=
